<?xml version="1.0" encoding="utf-8"?>
<!-- Generator: Adobe Illustrator 16.0.0, SVG Export Plug-In . SVG Version: 6.00 Build 0)  -->
<!DOCTYPE svg PUBLIC "-//W3C//DTD SVG 1.1//EN" "http://www.w3.org/Graphics/SVG/1.1/DTD/svg11.dtd">
<svg version="1.1" id="Layer_1" xmlns="http://www.w3.org/2000/svg" xmlns:xlink="http://www.w3.org/1999/xlink" x="0px" y="0px"
	 width="841.89px" height="1190.55px" viewBox="0 0 841.89 1190.55" enable-background="new 0 0 841.89 1190.55"
	 xml:space="preserve">
<g>
	<g>
		<path fill-rule="evenodd" clip-rule="evenodd" fill="#9F9F9F" d="M140.77,778.629c6.184,0,12.369,0,18.701,0
			c0-13.024,0-25.81,0-38.935c-6.191,0-12.444,0-18.697,0c0-0.19,0.001-0.381,0.001-0.572c6.156,0,12.311,0,18.657,0
			c0-13.268,0-26.304,0-39.59c-6.204,0-12.384,0-18.563,0c-0.002-0.19-0.005-0.381-0.007-0.571c6.168,0,12.336,0,18.63,0
			c0-13.108,0-25.894,0-39.015c-6.254,0-12.509,0-18.764,0c0.001-0.19,0.002-0.381,0.003-0.571c6.184,0,12.368,0,18.722,0
			c0-12.9,0-25.566,0-38.476c-6.268,0-12.449,0-18.629,0c-0.001-0.157-0.003-0.315-0.004-0.474c6.128,0,12.257,0,18.595,0
			c0-13.077,0-25.929,0-39.112c-6.19,0-12.417,0-18.644,0c0.001-0.19,0.002-0.381,0.004-0.571c6.184,0,12.368,0,18.699,0
			c0-13.024,0-25.81,0-38.935c-6.192,0-12.447,0-18.701,0c0.001-0.19,0.001-0.382,0.002-0.572c6.157,0,12.313,0,18.659,0
			c0-13.082,0-25.933,0-39.032c-6.206,0-12.386,0-18.566,0c-0.001-0.158-0.003-0.316-0.004-0.475c6.101,0,12.201,0,18.531,0
			c0-12.888,0-25.553,0-38.554c-6.157,0-12.412,0-18.667,0c0.001-0.191,0.002-0.382,0.004-0.572c6.186,0,12.371,0,18.724,0
			c0-13.087,0-25.938,0-39.032c-6.27,0-12.452,0-18.634,0c-0.001-0.158-0.002-0.316-0.003-0.474c6.13,0,12.26,0,18.598,0
			c0-13.264,0-26.301,0-39.67c-6.191,0-12.417,0-18.642,0c0.001-0.19,0.002-0.382,0.004-0.572c6.184,0,12.368,0,18.697,0
			c0-13.024,0-25.81,0-38.934c-6.197,0-12.45,0-18.702,0c0-0.19,0-0.382,0-0.572c6.158,0,12.317,0,18.663,0
			c0-12.896,0-25.562,0-38.475c-6.209,0-12.39,0-18.57,0c-0.001-0.158-0.003-0.316-0.004-0.474c6.103,0,12.205,0,18.535,0
			c0-13.074,0-25.925,0-39.112c-6.16,0-12.414,0-18.667,0c0.001-0.19,0.002-0.381,0.003-0.572c6.185,0,12.371,0,18.801,0
			c0-6.965,0-13.702,0-20.438c0.191-0.002,0.381-0.004,0.572-0.006c0,6.713,0,13.425,0,20.273c13.106,0,25.891,0,39.014,0
			c0-6.786,0-13.598,0-20.41c0.19,0.001,0.381,0.002,0.571,0.002c0,6.73,0,13.461,0,20.368c13.085,0,25.936,0,39.033,0
			c0-6.798,0-13.537,0-20.275c0.158,0,0.316-0.002,0.474-0.002c0,6.673,0,13.347,0,20.239c12.89,0,25.555,0,38.555,0
			c0-6.734,0-13.53,0-20.326c0.19,0.001,0.381,0.002,0.571,0.003c0,6.742,0,13.484,0,20.382c13.023,0,25.809,0,38.935,0
			c0-6.725,0-13.535,0-20.345c0.19,0,0.382,0,0.572,0c0,6.703,0,13.406,0,20.305c13.266,0,26.303,0,39.59,0
			c0-6.738,0-13.475,0-20.211c0.19-0.002,0.381-0.004,0.572-0.006c0,6.714,0,13.427,0,20.276c12.92,0,25.52,0,38.456,0
			c0-6.79,0-13.601,0-20.412c0.19,0,0.382,0.001,0.572,0.001c0,6.732,0,13.464,0,20.372c13.084,0,25.936,0,39.032,0
			c0-6.802,0-13.54,0-20.279c0.158-0.001,0.315-0.002,0.474-0.003c0,6.675,0,13.35,0,20.242c13.447,0,26.67,0,40.227,0
			c0-6.735,0-13.53,0-20.325c0.191,0.001,0.382,0.002,0.572,0.004c0,6.742,0,13.483,0,20.38c12.837,0,25.437,0,38.377,0
			c0-6.729,0-13.539,0-20.349c0.19,0,0.381,0,0.571,0c0,6.704,0,13.409,0,20.309c12.896,0,25.561,0,38.476,0
			c0-6.741,0-13.478,0-20.214c0.191-0.002,0.382-0.005,0.572-0.008c0,6.717,0,13.434,0,20.282c13.106,0,25.892,0,39.014,0
			c0-6.793,0-13.604,0-20.416c0.19,0,0.381,0.001,0.572,0.001c0,6.733,0,13.467,0,20.375c13.271,0,26.308,0,39.59,0
			c0-6.805,0-13.544,0-20.282c0.158-0.001,0.315-0.002,0.474-0.003c0,6.677,0,13.353,0,20.246c12.89,0,25.556,0,38.555,0
			c0-6.737,0-13.53,0-20.323c0.19,0.001,0.382,0.002,0.572,0.003c0,6.742,0,13.483,0,20.379c13.022,0,25.808,0,38.934,0
			c0-6.732,0-13.542,0-20.351c0.19,0,0.381,0,0.572,0c0,6.706,0,13.412,0,20.313c13.08,0,25.932,0,39.032,0
			c0-6.745,0-13.482,0-20.218c0.191-0.002,0.382-0.004,0.572-0.005c0,6.716,0,13.433,0,20.388c7.242,0,14.168,0,21.093,0
			c0.001,0.158,0.001,0.316,0.002,0.474c-6.877,0-13.753,0-20.835,0c0,13.078,0,25.929,0,39.032c6.898,0,13.819,0,20.739,0
			c0.004,0.191,0.007,0.381,0.01,0.572c-6.89,0-13.778,0-20.809,0c0,12.918,0,25.518,0,38.457c6.95,0,13.944,0,20.939,0
			c0,0.19,0.001,0.381,0.001,0.571c-6.905,0-13.812,0-20.901,0c0,13.083,0,25.934,0,39.032c6.961,0,13.885,0,20.808,0
			c0.002,0.158,0.003,0.316,0.004,0.474c-6.849,0-13.698,0-20.772,0c0,13.26,0,26.297,0,39.67c6.908,0,13.9,0,20.893,0
			c-0.001,0.19-0.002,0.382-0.003,0.572c-6.929,0-13.856,0-20.949,0c0,13.087,0,25.938,0,39.032c7.024,0,13.95,0,20.875,0
			c0.001,0.157,0.002,0.315,0.003,0.474c-6.878,0-13.756,0-20.839,0c0,12.893,0,25.558,0,38.475c6.9,0,13.822,0,20.744,0
			c0.002,0.19,0.005,0.382,0.009,0.572c-6.891,0-13.781,0-20.812,0c0,13.104,0,25.89,0,39.014c6.952,0,13.947,0,20.942,0
			c0,0.19,0,0.381,0,0.571c-6.906,0-13.813,0-20.903,0c0,13.084,0,25.935,0,39.033c6.963,0,13.887,0,20.811,0
			c0.001,0.158,0.002,0.315,0.004,0.473c-6.851,0-13.7,0-20.774,0c0,13.074,0,25.926,0,39.113c6.908,0,13.899,0,20.892,0
			c-0.001,0.19-0.002,0.381-0.003,0.571c-6.928,0-13.856,0-20.948,0c0,12.901,0,25.566,0,38.476c7.025,0,13.951,0,20.876,0
			c0.001,0.157,0.002,0.314,0.003,0.473c-6.879,0-13.757,0-20.84,0c0,13.078,0,25.93,0,39.032c6.902,0,13.823,0,20.745,0
			c0.002,0.19,0.004,0.382,0.006,0.572c-6.889,0-13.778,0-20.81,0c0,13.291,0,26.262,0,39.571c6.952,0,13.948,0,20.943,0
			c0,0.19,0,0.381,0,0.571c-6.907,0-13.813,0-20.904,0c0,13.083,0,25.934,0,39.032c6.964,0,13.888,0,20.812,0
			c0.001,0.158,0.002,0.316,0.003,0.475c-6.851,0-13.7,0-20.774,0c0,12.888,0,25.553,0,38.555c6.908,0,13.899,0,20.891,0
			c-0.001,0.19-0.002,0.381-0.002,0.571c-6.929,0-13.857,0-20.948,0c0,13.088,0,25.938,0,39.032c7.027,0,13.951,0,20.877,0
			c0.001,0.158,0.002,0.316,0.003,0.474c-6.879,0-13.758,0-20.971,0c0,7.215,0,14.213,0,21.21c-0.19,0-0.382-0.002-0.572-0.003
			c0-6.92,0-13.841,0-20.935c-13.085,0-25.936,0-39.032,0c0,6.994,0,13.919,0,20.844c-0.158,0.001-0.315,0.001-0.474,0.002
			c0-6.864,0-13.729,0-20.807c-13.076,0-25.927,0-39.112,0c0,6.925,0,13.902,0,20.879c-0.19-0.001-0.381-0.002-0.572-0.003
			c0-6.928,0-13.855,0-20.936c-12.837,0-25.437,0-38.376,0c0,6.921,0,13.917,0,20.913c-0.19,0-0.382-0.001-0.572-0.001
			c0-6.893,0-13.786,0-20.872c-13.267,0-26.303,0-39.59,0c0,6.934,0,13.856,0,20.778c-0.19,0.002-0.382,0.004-0.572,0.007
			c0-6.905,0-13.81,0-20.845c-13.106,0-25.892,0-39.014,0c0,6.984,0,13.982,0,20.979c-0.19-0.001-0.381-0.001-0.571-0.002
			c0-6.922,0-13.844,0-20.938c-12.9,0-25.565,0-38.476,0c0,6.997,0,13.921,0,20.846c-0.158,0.001-0.315,0.002-0.474,0.003
			c0-6.865,0-13.73,0-20.81c-12.891,0-25.556,0-38.555,0c0,6.927,0,13.902,0,20.878c-0.19-0.001-0.381-0.002-0.571-0.004
			c0-6.927,0-13.854,0-20.933c-13.396,0-26.552,0-40.05,0c0,6.924,0,13.919,0,20.914c-0.19,0-0.381,0-0.571,0
			c0-6.895,0-13.788,0-20.875c-13.081,0-25.932,0-39.032,0c0,6.936,0,13.858,0,20.78c-0.19,0.002-0.381,0.004-0.572,0.007
			c0-6.905,0-13.811,0-20.847c-12.922,0-25.521,0-38.456,0c0,6.986,0,13.984,0,20.981c-0.19-0.001-0.381-0.001-0.571-0.002
			c0-6.923,0-13.845,0-20.94c-13.271,0-26.309,0-39.591,0c0,6.999,0,13.924,0,20.848c-0.157,0.001-0.315,0.002-0.474,0.003
			c0-6.866,0-13.731,0-20.811c-13.076,0-25.928,0-39.111,0c0,6.927,0,13.902,0,20.878c-0.191-0.001-0.382-0.003-0.572-0.004
			c0-6.928,0-13.854,0-20.934c-12.837,0-25.437,0-38.376,0c0,6.925,0,13.921,0,20.916c-0.19,0-0.381,0-0.572,0
			c0-6.895,0-13.79,0-20.877c-13.081,0-25.931,0-39.032,0c0,6.938,0,13.859,0,20.782c-0.19,0.002-0.382,0.005-0.572,0.007
			c0-6.906,0-13.813,0-20.848c-13.107,0-25.893,0-39.014,0c0,6.987,0,13.985,0,20.982c-0.19,0-0.381-0.001-0.572-0.002
			c0-6.924,0-13.847,0-21.017c-6.405,0-12.584,0-18.763,0c-0.003-0.19-0.005-0.382-0.008-0.571c6.149,0,12.297,0,18.585,0
			c0-13.105,0-25.891,0-39.014c-6.212,0-12.464,0-18.717,0c0-0.191,0-0.382,0-0.572c6.165,0,12.33,0,18.678,0
			c0-12.897,0-25.563,0-38.533c-6.252,0-12.461,0-18.671,0C140.768,778.992,140.769,778.811,140.77,778.629z M357.385,383.545
			c-13.287,0-26.255,0-39.301,0c0,13.182,0,26.214,0,39.253c13.206,0,26.238,0,39.301,0
			C357.385,409.633,357.385,396.666,357.385,383.545z M318.109,699.581c0,13.256,0,26.288,0,39.249c13.232,0,26.266,0,39.25,0
			c0-13.19,0-26.158,0-39.249C344.244,699.581,331.277,699.581,318.109,699.581z M476.658,343.983c-13.357,0-26.576,0-39.828,0
			c0,13.012,0,25.858,0,38.664c13.408,0,26.628,0,39.828,0C476.658,369.652,476.658,356.871,476.658,343.983z M476.673,660.079
			c-13.446,0-26.665,0-39.806,0c0,13.048,0,25.896,0,38.688c13.378,0,26.531,0,39.806,0
			C476.673,685.837,476.673,673.055,476.673,660.079z M436.841,739.715c0,13.072,0,25.92,0,38.691c13.42,0,26.639,0,39.806,0
			c0-13.006,0-25.787,0-38.691C463.345,739.715,450.192,739.715,436.841,739.715z M436.766,462.372c13.446,0,26.665,0,39.808,0
			c0-13.049,0-25.896,0-38.69c-13.379,0-26.531,0-39.808,0C436.766,436.612,436.766,449.394,436.766,462.372z M436.84,502.254
			c0,13.068,0,25.916,0,38.691c13.419,0,26.638,0,39.809,0c0-13.005,0-25.786,0-38.691
			C463.347,502.254,450.194,502.254,436.84,502.254z M436.768,620.124c13.44,0,26.659,0,39.807,0c0-13.047,0-25.895,0-38.693
			c-13.376,0-26.529,0-39.807,0C436.768,594.36,436.768,607.141,436.768,620.124z M238.58,422.868c0-13.254,0-26.287,0-39.249
			c-13.046,0-25.894,0-38.693,0c0,13.19,0,26.157,0,39.249C212.815,422.868,225.597,422.868,238.58,422.868z M318.11,739.714
			c0,13.074,0,25.921,0,38.692c13.234,0,26.268,0,39.247,0c0-13.007,0-25.788,0-38.692
			C344.241,739.714,331.274,739.714,318.11,739.714z M634.435,502.339c-13.295,0-26.328,0-39.347,0c0,12.993,0,25.774,0,38.667
			c13.17,0,26.202,0,39.347,0C634.435,528.063,634.435,515.281,634.435,502.339z M357.396,344.031c-13.296,0-26.329,0-39.348,0
			c0,12.993,0,25.774,0,38.667c13.17,0,26.203,0,39.348,0C357.396,369.755,357.396,356.974,357.396,344.031z M595.074,698.719
			c13.261,0,26.293,0,39.249,0c0-13.049,0-25.896,0-38.689c-13.192,0-26.159,0-39.249,0
			C595.074,672.96,595.074,685.741,595.074,698.719z M713.019,699.654c-13.07,0-25.918,0-38.69,0c0,13.233,0,26.266,0,39.249
			c13.004,0,25.786,0,38.69,0C713.019,725.787,713.019,712.821,713.019,699.654z M594.287,699.654c-13.069,0-25.916,0-38.691,0
			c0,13.232,0,26.266,0,39.25c13.005,0,25.787,0,38.691,0C594.287,725.789,594.287,712.821,594.287,699.654z M435.947,738.919
			c0-13.167,0-26.198,0-39.28c-13.006,0-25.854,0-38.674,0c0,13.217,0,26.25,0,39.28
			C410.262,738.919,423.043,738.919,435.947,738.919z M199.859,738.851c13.083,0,25.93,0,38.692,0c0-13.237,0-26.271,0-39.241
			c-13.009,0-25.791,0-38.692,0C199.859,712.729,199.859,725.695,199.859,738.851z M595.147,343.946c0,13.067,0,25.915,0,38.691
			c13.232,0,26.266,0,39.252,0c0-13.004,0-25.786,0-38.691C621.284,343.946,608.317,343.946,595.147,343.946z M674.297,383.528
			c0,13.238,0,26.271,0,39.249c13.041,0,25.889,0,38.703,0c0-13.186,0-26.152,0-39.249
			C700.077,383.528,687.295,383.528,674.297,383.528z M555.563,383.53c0,13.231,0,26.264,0,39.249c13.039,0,25.887,0,38.71,0
			c0-13.182,0-26.149,0-39.249C581.351,383.53,568.57,383.53,555.563,383.53z M595.121,423.586c0,13.085,0,25.932,0,38.79
			c13.204,0,26.237,0,39.207,0c0-13.044,0-25.892,0-38.79C621.207,423.586,608.306,423.586,595.121,423.586z M634.348,620.198
			c0-13.075,0-25.922,0-38.691c-13.234,0-26.268,0-39.247,0c0,13.006,0,25.788,0,38.691
			C608.218,620.198,621.185,620.198,634.348,620.198z M357.318,580.611c0-13.045,0-25.893,0-38.691c-13.225,0-26.258,0-39.267,0
			c0,12.996,0,25.777,0,38.691C331.159,580.611,344.126,580.611,357.318,580.611z M435.979,383.595c-13.067,0-25.915,0-38.691,0
			c0,13.231,0,26.266,0,39.251c13.005,0,25.785,0,38.691,0C435.979,409.731,435.979,396.765,435.979,383.595z M318.11,265.348
			c0,13.072,0,25.919,0,38.692c13.232,0,26.267,0,39.249,0c0-13.005,0-25.787,0-38.692
			C344.243,265.348,331.276,265.348,318.11,265.348z M318.11,581.406c0,13.072,0,25.919,0,38.692c13.233,0,26.267,0,39.249,0
			c0-13.006,0-25.787,0-38.692C344.242,581.406,331.276,581.406,318.11,581.406z M318.036,540.97c13.257,0,26.289,0,39.249,0
			c0-13.047,0-25.895,0-38.692c-13.19,0-26.158,0-39.249,0C318.036,515.207,318.036,527.988,318.036,540.97z M595.121,739.645
			c0,13.085,0,25.932,0,38.79c13.204,0,26.237,0,39.207,0c0-13.044,0-25.892,0-38.79
			C621.207,739.645,608.306,739.645,595.121,739.645z M357.293,857.118c0-13.122,0-25.97,0-38.79c-13.184,0-26.15,0-39.216,0
			c0,12.988,0,25.836,0,38.79C331.21,857.118,344.178,857.118,357.293,857.118z M476.598,343.158c0-12.886,0-25.547,0-38.135
			c-13.419,0-26.638,0-39.806,0c0,12.82,0,25.416,0,38.135C450.094,343.158,463.246,343.158,476.598,343.158z M436.835,620.99
			c0,12.867,0,25.528,0,38.134c13.413,0,26.632,0,39.818,0c0-12.813,0-25.408,0-38.134
			C463.358,620.99,450.205,620.99,436.835,620.99z M436.768,817.451c13.44,0,26.659,0,39.807,0c0-12.86,0-25.522,0-38.136
			c-13.376,0-26.529,0-39.807,0C436.768,792.06,436.768,804.654,436.768,817.451z M436.801,463.242c0,12.795,0,25.456,0,38.166
			c13.377,0,26.596,0,39.788,0c0-12.846,0-25.508,0-38.166C463.229,463.242,450.076,463.242,436.801,463.242z M594.215,382.734
			c0-13.069,0-25.916,0-38.691c-13.047,0-25.894,0-38.693,0c0,13.004,0,25.786,0,38.691
			C568.451,382.734,581.232,382.734,594.215,382.734z M712.946,382.734c0-13.069,0-25.916,0-38.691c-13.047,0-25.895,0-38.693,0
			c0,13.004,0,25.786,0,38.691C687.182,382.734,699.963,382.734,712.946,382.734z M752.523,382.734c0-13.069,0-25.916,0-38.691
			c-13.047,0-25.895,0-38.694,0c0,13.004,0,25.786,0,38.691C726.759,382.734,739.54,382.734,752.523,382.734z M674.302,502.254
			c0,13.069,0,25.916,0,38.691c13.047,0,25.895,0,38.693,0c0-13.005,0-25.786,0-38.691
			C700.065,502.254,687.284,502.254,674.302,502.254z M752.522,541.043c0-13.07,0-25.918,0-38.692c-13.047,0-25.894,0-38.692,0
			c0,13.005,0,25.787,0,38.692C726.76,541.043,739.541,541.043,752.522,541.043z M238.572,580.626c0-13.09,0-25.938,0-38.691
			c-13.054,0-25.901,0-38.679,0c0,13.012,0,25.793,0,38.691C212.83,580.626,225.611,580.626,238.572,580.626z M713.021,541.906
			c-13.078,0-25.926,0-38.691,0c0,13.049,0,25.896,0,38.687c13.007,0,25.789,0,38.691,0
			C713.021,567.661,713.021,554.88,713.021,541.906z M238.652,265.421c-13.069,0-25.916,0-38.692,0c0,13.047,0,25.894,0,38.694
			c13.004,0,25.786,0,38.692,0C238.652,291.186,238.652,278.404,238.652,265.421z M199.001,462.446c0-13.071,0-25.919,0-38.691
			c-13.047,0-25.895,0-38.691,0c0,13.006,0,25.787,0,38.691C173.24,462.446,186.022,462.446,199.001,462.446z M199.865,462.375
			c13.064,0,25.912,0,38.691,0c0-13.045,0-25.893,0-38.696c-13.003,0-25.785,0-38.691,0
			C199.865,436.606,199.865,449.388,199.865,462.375z M435.923,698.859c0-13.104,0-25.95,0-38.774c-13.03,0-25.878,0-38.626,0
			c0,13.055,0,25.901,0,38.774C410.244,698.859,422.959,698.859,435.923,698.859z M278.482,423.654c0,13.103,0,25.884,0,38.744
			c12.996,0,25.842,0,38.694,0c0-13.02,0-25.867,0-38.744C304.198,423.654,291.417,423.654,278.482,423.654z M278.46,698.721
			c13.068,0,25.916,0,38.691,0c0-13.046,0-25.895,0-38.693c-13.004,0-25.785,0-38.691,0
			C278.46,672.956,278.46,685.737,278.46,698.721z M435.981,423.731c-13.075,0-25.922,0-38.691,0c0,13.048,0,25.896,0,38.689
			c13.006,0,25.788,0,38.691,0C435.981,449.489,435.981,436.709,435.981,423.731z M555.572,739.715c0,13.072,0,25.919,0,38.691
			c13.047,0,25.895,0,38.691,0c0-13.005,0-25.787,0-38.691C581.333,739.715,568.552,739.715,555.572,739.715z M238.646,660.071
			c-13.053,0-25.9,0-38.692,0c0,13.041,0,25.889,0,38.704c13,0,25.781,0,38.692,0C238.646,685.852,238.646,673.07,238.646,660.071z
			 M160.286,698.72c13.071,0,25.918,0,38.692,0c0-13.047,0-25.895,0-38.692c-13.005,0-25.787,0-38.692,0
			C160.286,672.958,160.286,685.738,160.286,698.72z M435.982,265.424c-13.078,0-25.926,0-38.691,0c0,13.05,0,25.897,0,38.688
			c13.008,0,25.789,0,38.691,0C435.982,291.179,435.982,278.398,435.982,265.424z M317.25,739.789c-13.073,0-25.92,0-38.692,0
			c0,13.048,0,25.895,0,38.691c13.006,0,25.787,0,38.692,0C317.25,765.55,317.25,752.769,317.25,739.789z M674.212,462.355
			c13.123,0,25.97,0,38.79,0c0-12.997,0-25.778,0-38.658c-12.988,0-25.835,0-38.79,0
			C674.212,436.645,674.212,449.426,674.212,462.355z M752.522,462.446c0-13.071,0-25.918,0-38.692c-13.047,0-25.895,0-38.691,0
			c0,13.006,0,25.787,0,38.692C726.76,462.446,739.542,462.446,752.522,462.446z M713.88,581.407c0,13.071,0,25.918,0,38.691
			c13.048,0,25.895,0,38.691,0c0-13.006,0-25.787,0-38.691C739.642,581.407,726.86,581.407,713.88,581.407z M712.944,620.198
			c0-13.074,0-25.922,0-38.692c-13.048,0-25.896,0-38.689,0c0,13.007,0,25.788,0,38.692
			C687.186,620.198,699.967,620.198,712.944,620.198z M594.224,304.13c0-13.045,0-25.893,0-38.692c-13.039,0-25.887,0-38.71,0
			c0,12.997,0,25.778,0,38.692C568.435,304.13,581.217,304.13,594.224,304.13z M712.946,304.138c0-13.068,0-25.916,0-38.692
			c-13.046,0-25.894,0-38.693,0c0,13.004,0,25.786,0,38.692C687.182,304.138,699.963,304.138,712.946,304.138z M594.216,620.195
			c0-13.067,0-25.915,0-38.691c-13.046,0-25.895,0-38.694,0c0,13.004,0,25.785,0,38.691
			C568.45,620.195,581.231,620.195,594.216,620.195z M160.359,739.715c0,13.071,0,25.918,0,38.692c13.047,0,25.895,0,38.691,0
			c0-13.006,0-25.787,0-38.692C186.122,739.715,173.34,739.715,160.359,739.715z M555.531,502.262c0,12.981,0,25.828,0,38.723
			c13.007,0,25.854,0,38.674,0c0-13.031,0-25.878,0-38.723C581.217,502.262,568.436,502.262,555.531,502.262z M238.578,778.506
			c0-13.074,0-25.922,0-38.691c-13.049,0-25.896,0-38.69,0c0,13.007,0,25.788,0,38.691
			C212.819,778.506,225.601,778.506,238.578,778.506z M555.556,541.764c0,13.104,0,25.951,0,38.774c13.03,0,25.877,0,38.625,0
			c0-13.055,0-25.901,0-38.774C581.233,541.764,568.52,541.764,555.556,541.764z M752.61,660.014c-13.091,0-25.872,0-38.769,0
			c0,12.983,0,25.83,0,38.72c13.008,0,25.854,0,38.769,0C752.61,685.768,752.61,672.987,752.61,660.014z M317.14,620.261
			c0-12.935,0-25.846,0-38.79c-12.941,0-25.788,0-38.592,0c0,13.037,0,25.885,0,38.79
			C291.476,620.261,304.189,620.261,317.14,620.261z M199.001,541.044c0-13.074,0-25.921,0-38.692c-13.048,0-25.896,0-38.69,0
			c0,13.007,0,25.788,0,38.692C173.242,541.044,186.023,541.044,199.001,541.044z M199.862,540.969c13.072,0,25.919,0,38.691,0
			c0-13.047,0-25.895,0-38.691c-13.005,0-25.787,0-38.691,0C199.862,515.208,199.862,527.989,199.862,540.969z M317.235,502.292
			c-12.986,0-25.833,0-38.713,0c0,13.011,0,25.858,0,38.663c13.036,0,25.884,0,38.713,0
			C317.235,527.961,317.235,515.18,317.235,502.292z M674.303,660.004c0,13.07,0,25.917,0,38.691c13.047,0,25.894,0,38.692,0
			c0-13.005,0-25.786,0-38.691C700.065,660.004,687.284,660.004,674.303,660.004z M238.626,620.195c0-13.107,0-25.888,0-38.737
			c-12.999,0-25.846,0-38.688,0c0,13.024,0,25.871,0,38.737C212.919,620.195,225.701,620.195,238.626,620.195z M397.187,580.543
			c13.082,0,25.93,0,38.691,0c0-13.052,0-25.899,0-38.685c-13.009,0-25.79,0-38.691,0
			C397.187,554.792,397.187,567.573,397.187,580.543z M199.076,581.481c-13.072,0-25.919,0-38.692,0c0,13.047,0,25.895,0,38.69
			c13.005,0,25.787,0,38.692,0C199.076,607.242,199.076,594.461,199.076,581.481z M198.996,382.741c0-13.09,0-25.938,0-38.691
			c-13.054,0-25.901,0-38.68,0c0,13.011,0,25.793,0,38.691C173.253,382.741,186.034,382.741,198.996,382.741z M712.943,778.506
			c0-13.075,0-25.922,0-38.691c-13.048,0-25.896,0-38.688,0c0,13.007,0,25.788,0,38.691
			C687.186,778.506,699.968,778.506,712.943,778.506z M752.521,778.506c0-13.075,0-25.922,0-38.691c-13.048,0-25.896,0-38.688,0
			c0,13.007,0,25.788,0,38.691C726.763,778.506,739.544,778.506,752.521,778.506z M199.937,343.943c0,13.075,0,25.922,0,38.692
			c13.049,0,25.896,0,38.69,0c0-13.007,0-25.788,0-38.692C225.696,343.943,212.915,343.943,199.937,343.943z M199.863,857.027
			c13.07,0,25.917,0,38.691,0c0-13.046,0-25.895,0-38.691c-13.005,0-25.787,0-38.691,0
			C199.863,831.266,199.863,844.047,199.863,857.027z M278.459,382.66c13.073,0,25.92,0,38.691,0c0-13.048,0-25.895,0-38.69
			c-13.006,0-25.788,0-38.691,0C278.459,356.9,278.459,369.682,278.459,382.66z M397.263,818.313c0,13.068,0,25.915,0,38.691
			c13.047,0,25.894,0,38.694,0c0-13.004,0-25.785,0-38.691C423.027,818.313,410.246,818.313,397.263,818.313z M594.289,818.387
			c-13.075,0-25.922,0-38.691,0c0,13.049,0,25.896,0,38.689c13.007,0,25.788,0,38.691,0
			C594.289,844.145,594.289,831.363,594.289,818.387z M674.247,818.305c0,13.099,0,25.879,0,38.754c12.99,0,25.837,0,38.705,0
			c0-13.016,0-25.862,0-38.754C699.979,818.305,687.198,818.305,674.247,818.305z M595.149,620.983c0,12.888,0,25.549,0,38.134
			c13.233,0,26.268,0,39.248,0c0-12.82,0-25.415,0-38.134C621.281,620.983,608.314,620.983,595.149,620.983z M277.6,738.928
			c0-13.256,0-26.289,0-39.25c-12.861,0-25.523,0-38.137,0c0,13.19,0,26.158,0,39.25C252.207,738.928,264.802,738.928,277.6,738.928
			z M358.244,699.58c0,13.259,0,26.291,0,39.249c12.863,0,25.525,0,38.134,0c0-13.191,0-26.159,0-39.249
			C383.634,699.58,371.037,699.58,358.244,699.58z M477.466,738.896c12.925,0,25.521,0,38.17,0c0-13.19,0-26.222,0-39.236
			c-12.843,0-25.505,0-38.17,0C477.466,712.834,477.466,725.801,477.466,738.896z M516.478,738.854c12.889,0,25.55,0,38.134,0
			c0-13.234,0-26.268,0-39.247c-12.82,0-25.416,0-38.134,0C516.478,712.723,516.478,725.69,516.478,738.854z M635.283,699.58
			c0,13.259,0,26.291,0,39.249c12.863,0,25.524,0,38.134,0c0-13.191,0-26.159,0-39.249
			C660.673,699.58,648.076,699.58,635.283,699.58z M357.308,343.16c0-12.893,0-25.554,0-38.134c-13.235,0-26.269,0-39.245,0
			c0,12.822,0,25.417,0,38.134C331.182,343.16,344.148,343.16,357.308,343.16z M277.671,383.595c-12.882,0-25.543,0-38.134,0
			c0,13.232,0,26.266,0,39.251c12.818,0,25.414,0,38.134,0C277.671,409.73,277.671,396.764,277.671,383.595z M358.153,422.779
			c12.938,0,25.599,0,38.233,0c0-13.184,0-26.15,0-39.216c-12.804,0-25.465,0-38.233,0
			C358.153,396.696,358.153,409.663,358.153,422.779z M357.309,659.217c0-12.887,0-25.548,0-38.135c-13.233,0-26.267,0-39.247,0
			c0,12.82,0,25.417,0,38.135C331.178,659.217,344.145,659.217,357.309,659.217z M357.396,779.379c-13.296,0-26.329,0-39.348,0
			c0,12.807,0,25.402,0,38.108c13.17,0,26.202,0,39.348,0C357.396,804.73,357.396,792.135,357.396,779.379z M477.46,422.796
			c12.884,0,25.545,0,38.134,0c0-13.232,0-26.266,0-39.25c-12.819,0-25.415,0-38.134,0
			C477.46,396.661,477.46,409.628,477.46,422.796z M595.099,779.29c0,12.916,0,25.513,0,38.187c13.181,0,26.213,0,39.252,0
			c0-12.834,0-25.496,0-38.187C621.186,779.29,608.219,779.29,595.099,779.29z M554.637,422.87c0-13.26,0-26.293,0-39.249
			c-12.863,0-25.524,0-38.133,0c0,13.192,0,26.16,0,39.249C529.249,422.87,541.845,422.87,554.637,422.87z M635.21,422.796
			c12.885,0,25.546,0,38.134,0c0-13.233,0-26.267,0-39.25c-12.818,0-25.415,0-38.134,0
			C635.21,396.662,635.21,409.629,635.21,422.796z M357.365,501.473c0-12.913,0-25.508,0-38.197c-13.176,0-26.208,0-39.262,0
			c0,12.83,0,25.492,0,38.197C331.263,501.473,344.229,501.473,357.365,501.473z M634.35,501.465c0-12.883,0-25.544,0-38.134
			c-13.232,0-26.266,0-39.25,0c0,12.818,0,25.414,0,38.134C608.214,501.465,621.181,501.465,634.35,501.465z M595.073,343.135
			c13.288,0,26.255,0,39.302,0c0-12.81,0-25.471,0-38.138c-13.207,0-26.239,0-39.302,0
			C595.073,317.79,595.073,330.386,595.073,343.135z M317.253,621.062c-13.083,0-25.93,0-38.692,0c0,12.865,0,25.526,0,38.127
			c13.01,0,25.791,0,38.692,0C317.253,646.44,317.253,633.845,317.253,621.062z M160.358,463.234c0,12.884,0,25.545,0,38.134
			c13.047,0,25.895,0,38.693,0c0-12.819,0-25.415,0-38.134C186.122,463.234,173.341,463.234,160.358,463.234z M435.907,659.216
			c0-12.884,0-25.545,0-38.135c-13.047,0-25.895,0-38.693,0c0,12.819,0,25.415,0,38.135
			C410.144,659.216,422.924,659.216,435.907,659.216z M635.21,462.373c12.884,0,25.545,0,38.135,0c0-13.046,0-25.894,0-38.693
			c-12.818,0-25.415,0-38.135,0C635.21,436.609,635.21,449.391,635.21,462.373z M477.459,857.027c12.886,0,25.547,0,38.134,0
			c0-13.047,0-25.895,0-38.691c-12.819,0-25.415,0-38.134,0C477.459,831.266,477.459,844.047,477.459,857.027z M594.287,621.057
			c-13.068,0-25.915,0-38.691,0c0,12.86,0,25.521,0,38.137c13.004,0,25.785,0,38.691,0
			C594.287,646.45,594.287,633.854,594.287,621.057z M477.473,580.581c12.801,0,25.461,0,38.155,0c0-13.011,0-25.858,0-38.663
			c-12.851,0-25.512,0-38.155,0C477.473,554.912,477.473,567.693,477.473,580.581z M554.638,857.101c0-13.069,0-25.917,0-38.691
			c-12.86,0-25.522,0-38.135,0c0,13.005,0,25.786,0,38.691C529.246,857.101,541.842,857.101,554.638,857.101z M713.803,659.139
			c13.082,0,25.93,0,38.691,0c0-12.865,0-25.526,0-38.126c-13.009,0-25.791,0-38.691,0
			C713.803,633.76,713.803,646.355,713.803,659.139z M516.553,423.655c0,13.074,0,25.921,0,38.691c12.863,0,25.524,0,38.133,0
			c0-13.006,0-25.787,0-38.691C541.94,423.655,529.345,423.655,516.553,423.655z M515.692,423.731c-12.889,0-25.55,0-38.134,0
			c0,13.048,0,25.896,0,38.689c12.82,0,25.416,0,38.134,0C515.692,449.49,515.692,436.709,515.692,423.731z M239.491,659.932
			c0,13.099,0,25.945,0,38.785c12.839,0,25.5,0,38.08,0c0-13.05,0-25.896,0-38.785C264.816,659.932,252.287,659.932,239.491,659.932
			z M396.308,462.469c0-13.14,0-25.986,0-38.79c-12.817,0-25.413,0-38.09,0c0,12.994,0,25.841,0,38.79
			C370.984,462.469,383.58,462.469,396.308,462.469z M358.202,660.01c0,13.111,0,25.893,0,38.729c12.818,0,25.479,0,38.12,0
			c0-13.029,0-25.877,0-38.729C383.521,660.01,370.926,660.01,358.202,660.01z M277.598,462.447c0-13.073,0-25.921,0-38.691
			c-12.862,0-25.524,0-38.133,0c0,13.006,0,25.787,0,38.691C252.21,462.447,264.805,462.447,277.598,462.447z M516.588,343.881
			c0,12.935,0,25.846,0,38.79c12.756,0,25.417,0,38.035,0c0-13.037,0-25.884,0-38.79
			C541.881,343.881,529.353,343.881,516.588,343.881z M477.532,660.004c0,13.069,0,25.917,0,38.691c12.861,0,25.523,0,38.136,0
			c0-13.005,0-25.785,0-38.691C502.924,660.004,490.329,660.004,477.532,660.004z M516.478,698.719c12.888,0,25.55,0,38.135,0
			c0-13.048,0-25.896,0-38.689c-12.821,0-25.416,0-38.135,0C516.478,672.96,516.478,685.741,516.478,698.719z M358.177,382.667
			c12.867,0,25.528,0,38.134,0c0-13.041,0-25.888,0-38.704c-12.813,0-25.408,0-38.134,0
			C358.177,356.887,358.177,369.668,358.177,382.667z M635.289,659.998c0,13.089,0,25.937,0,38.69c12.868,0,25.529,0,38.122,0
			c0-13.011,0-25.792,0-38.69C660.661,659.998,648.065,659.998,635.289,659.998z M752.595,304.998c-13.068,0-25.915,0-38.691,0
			c0,12.861,0,25.522,0,38.137c13.005,0,25.786,0,38.691,0C752.595,330.392,752.595,317.796,752.595,304.998z M198.974,659.237
			c0-12.964,0-25.625,0-38.226c-13.009,0-25.791,0-38.635,0c0,12.815,0,25.476,0,38.226
			C173.297,659.237,186.078,659.237,198.974,659.237z M555.498,343.084c13.07,0,25.918,0,38.692,0c0-12.861,0-25.522,0-38.134
			c-13.006,0-25.787,0-38.692,0C555.498,317.694,555.498,330.289,555.498,343.084z M554.712,541.904c-12.888,0-25.549,0-38.134,0
			c0,13.048,0,25.896,0,38.69c12.819,0,25.416,0,38.134,0C554.712,567.664,554.712,554.883,554.712,541.904z M198.974,343.179
			c0-12.964,0-25.625,0-38.225c-13.009,0-25.791,0-38.635,0c0,12.814,0,25.476,0,38.225
			C173.297,343.179,186.078,343.179,198.974,343.179z M358.171,580.547c12.885,0,25.547,0,38.134,0c0-13.048,0-25.896,0-38.692
			c-12.819,0-25.415,0-38.134,0C358.171,554.784,358.171,567.565,358.171,580.547z M397.264,304.925c0,12.885,0,25.547,0,38.134
			c13.047,0,25.896,0,38.691,0c0-12.819,0-25.415,0-38.134C423.026,304.925,410.244,304.925,397.264,304.925z M673.43,541.892
			c-12.848,0-25.509,0-38.135,0c0,13.034,0,25.882,0,38.716c12.808,0,25.402,0,38.135,0
			C673.43,567.69,673.43,554.909,673.43,541.892z M277.607,580.611c0-13.045,0-25.893,0-38.691c-12.853,0-25.515,0-38.152,0
			c0,12.996,0,25.777,0,38.691C252.19,580.611,264.786,580.611,277.607,580.611z M317.176,343.157c0-12.883,0-25.544,0-38.134
			c-13.046,0-25.894,0-38.693,0c0,12.819,0,25.415,0,38.134C291.412,343.157,304.193,343.157,317.176,343.157z M516.588,502.189
			c0,12.934,0,25.845,0,38.79c12.756,0,25.417,0,38.035,0c0-13.037,0-25.885,0-38.79
			C541.881,502.189,529.353,502.189,516.588,502.189z M673.44,818.338c-12.921,0-25.517,0-38.181,0c0,12.998,0,25.846,0,38.688
			c12.839,0,25.5,0,38.181,0C673.44,844.045,673.44,831.264,673.44,818.338z M358.171,540.97c12.884,0,25.545,0,38.134,0
			c0-13.047,0-25.895,0-38.692c-12.818,0-25.414,0-38.134,0C358.171,515.207,358.171,527.988,358.171,540.97z M635.274,265.357
			c0,13.045,0,25.892,0,38.692c12.853,0,25.515,0,38.151,0c0-12.997,0-25.778,0-38.692
			C660.691,265.357,648.096,265.357,635.274,265.357z M516.543,265.357c0,13.045,0,25.892,0,38.692c12.854,0,25.515,0,38.152,0
			c0-12.997,0-25.778,0-38.692C541.96,265.357,529.364,265.357,516.543,265.357z M477.46,304.065c12.883,0,25.544,0,38.134,0
			c0-13.046,0-25.894,0-38.693c-12.818,0-25.414,0-38.134,0C477.46,278.301,477.46,291.082,477.46,304.065z M358.171,778.432
			c12.884,0,25.545,0,38.135,0c0-13.047,0-25.894,0-38.693c-12.818,0-25.414,0-38.135,0
			C358.171,752.668,358.171,765.449,358.171,778.432z M396.329,304.138c0-13.071,0-25.918,0-38.691c-12.861,0-25.522,0-38.134,0
			c0,13.005,0,25.787,0,38.691C370.939,304.138,383.534,304.138,396.329,304.138z M516.478,778.43c12.888,0,25.55,0,38.135,0
			c0-13.048,0-25.895,0-38.689c-12.82,0-25.416,0-38.135,0C516.478,752.671,516.478,765.452,516.478,778.43z M239.441,304.065
			c12.882,0,25.543,0,38.133,0c0-13.046,0-25.894,0-38.693c-12.818,0-25.414,0-38.133,0
			C239.441,278.301,239.441,291.082,239.441,304.065z M752.521,501.467c0-12.888,0-25.549,0-38.135c-13.047,0-25.895,0-38.69,0
			c0,12.82,0,25.416,0,38.135C726.762,501.467,739.543,501.467,752.521,501.467z M198.974,817.546c0-12.965,0-25.626,0-38.227
			c-13.009,0-25.791,0-38.635,0c0,12.815,0,25.477,0,38.227C173.297,817.546,186.078,817.546,198.974,817.546z M358.17,620.122
			c12.889,0,25.55,0,38.134,0c0-13.049,0-25.896,0-38.689c-12.821,0-25.416,0-38.134,0
			C358.17,594.363,358.17,607.145,358.17,620.122z M278.534,779.291c0,12.888,0,25.549,0,38.135c13.047,0,25.895,0,38.689,0
			c0-12.82,0-25.416,0-38.135C304.293,779.291,291.513,779.291,278.534,779.291z M594.227,501.453c0-12.848,0-25.509,0-38.134
			c-13.034,0-25.882,0-38.717,0c0,12.807,0,25.402,0,38.134C568.427,501.453,581.209,501.453,594.227,501.453z M435.906,817.524
			c0-12.886,0-25.547,0-38.135c-13.048,0-25.895,0-38.691,0c0,12.82,0,25.416,0,38.135
			C410.145,817.524,422.926,817.524,435.906,817.524z M554.711,581.48c-12.886,0-25.547,0-38.135,0c0,13.047,0,25.896,0,38.691
			c12.82,0,25.416,0,38.135,0C554.711,607.243,554.711,594.461,554.711,581.48z M555.556,779.227c0,12.917,0,25.578,0,38.216
			c13.03,0,25.877,0,38.625,0c0-12.869,0-25.529,0-38.216C581.233,779.227,568.52,779.227,555.556,779.227z M397.263,463.234
			c0,12.883,0,25.544,0,38.134c13.047,0,25.895,0,38.694,0c0-12.818,0-25.414,0-38.134
			C423.027,463.234,410.246,463.234,397.263,463.234z M752.516,817.53c0-12.903,0-25.565,0-38.134c-13.054,0-25.9,0-38.679,0
			c0,12.826,0,25.422,0,38.134C726.773,817.53,739.555,817.53,752.516,817.53z M317.24,463.299c-13.045,0-25.892,0-38.691,0
			c0,12.853,0,25.514,0,38.151c12.997,0,25.777,0,38.691,0C317.24,488.715,317.24,476.119,317.24,463.299z M277.6,857.101
			c0-13.069,0-25.917,0-38.691c-12.861,0-25.523,0-38.136,0c0,13.005,0,25.786,0,38.691
			C252.207,857.101,264.802,857.101,277.6,857.101z M358.241,818.315c0,13.061,0,25.907,0,38.691c12.857,0,25.52,0,38.142,0
			c0-13.002,0-25.783,0-38.691C383.642,818.315,371.046,818.315,358.241,818.315z M515.652,501.452c0-12.801,0-25.462,0-38.155
			c-12.825,0-25.486,0-38.105,0c0,12.851,0,25.512,0,38.155C490.355,501.452,502.951,501.452,515.652,501.452z M477.532,620.984
			c0,12.884,0,25.545,0,38.134c12.861,0,25.523,0,38.136,0c0-12.819,0-25.414,0-38.134
			C502.924,620.984,490.328,620.984,477.532,620.984z M635.21,659.143c12.884,0,25.546,0,38.134,0c0-12.86,0-25.522,0-38.135
			c-12.818,0-25.414,0-38.134,0C635.21,633.752,635.21,646.348,635.21,659.143z M635.21,343.085c12.884,0,25.545,0,38.135,0
			c0-12.86,0-25.522,0-38.136c-12.818,0-25.415,0-38.135,0C635.21,317.692,635.21,330.288,635.21,343.085z M277.743,304.971
			c-12.9,0-25.561,0-38.233,0c0,12.833,0,25.494,0,38.091c12.858,0,25.52,0,38.233,0
			C277.743,330.313,277.743,317.784,277.743,304.971z M477.533,779.291c0,12.888,0,25.549,0,38.135c12.862,0,25.524,0,38.133,0
			c0-12.82,0-25.416,0-38.135C502.922,779.291,490.326,779.291,477.533,779.291z M515.619,343.157c0-12.883,0-25.544,0-38.135
			c-12.861,0-25.522,0-38.137,0c0,12.819,0,25.414,0,38.135C490.226,343.157,502.82,343.157,515.619,343.157z M673.508,463.291
			c-12.918,0-25.579,0-38.217,0c0,12.844,0,25.506,0,38.068c12.869,0,25.53,0,38.217,0
			C673.508,488.598,673.508,476.068,673.508,463.291z M277.673,463.308c-12.888,0-25.549,0-38.134,0c0,12.863,0,25.524,0,38.133
			c12.821,0,25.416,0,38.134,0C277.673,488.695,277.673,476.101,277.673,463.308z M673.441,779.365c-12.884,0-25.546,0-38.134,0
			c0,12.861,0,25.523,0,38.135c12.819,0,25.414,0,38.134,0C673.441,804.757,673.441,792.161,673.441,779.365z M277.634,659.203
			c0-12.801,0-25.462,0-38.156c-12.826,0-25.487,0-38.106,0c0,12.851,0,25.513,0,38.156
			C252.336,659.203,264.931,659.203,277.634,659.203z M277.598,817.525c0-12.889,0-25.549,0-38.135c-12.863,0-25.524,0-38.132,0
			c0,12.821,0,25.416,0,38.135C252.21,817.525,264.806,817.525,277.598,817.525z"/>
	</g>
</g>
</svg>
